<mxfile host="Electron" modified="2024-04-03T13:07:31.364Z" agent="Mozilla/5.0 (Windows NT 10.0; Win64; x64) AppleWebKit/537.36 (KHTML, like Gecko) draw.io/24.1.0 Chrome/120.0.6099.109 Electron/28.1.0 Safari/537.36" etag="koHA8suQUldLK3awHH79" version="24.1.0" type="device">
  <diagram name="Диаграмма последовательности" id="Hu00vDbQBJiMVkQvlqTn">
    <mxGraphModel dx="1750" dy="1195" grid="1" gridSize="10" guides="1" tooltips="1" connect="1" arrows="1" fold="1" page="1" pageScale="1" pageWidth="1169" pageHeight="827" math="0" shadow="0">
      <root>
        <mxCell id="0" />
        <mxCell id="1" parent="0" />
        <mxCell id="FdM6LzHPZ8lNMNF223o6-10" value="" style="endArrow=none;html=1;rounded=0;entryX=0.5;entryY=1;entryDx=0;entryDy=0;dashed=1;strokeWidth=2;fillColor=#f5f5f5;strokeColor=#666666;movable=1;resizable=1;rotatable=1;deletable=1;editable=1;locked=0;connectable=1;" edge="1" parent="1" target="FdM6LzHPZ8lNMNF223o6-4">
          <mxGeometry width="50" height="50" relative="1" as="geometry">
            <mxPoint x="820" y="1040" as="sourcePoint" />
            <mxPoint x="720" y="150" as="targetPoint" />
          </mxGeometry>
        </mxCell>
        <mxCell id="FdM6LzHPZ8lNMNF223o6-9" value="" style="endArrow=none;html=1;rounded=0;entryX=0.5;entryY=1;entryDx=0;entryDy=0;dashed=1;strokeWidth=2;fillColor=#f5f5f5;strokeColor=#666666;movable=1;resizable=1;rotatable=1;deletable=1;editable=1;locked=0;connectable=1;" edge="1" parent="1" target="FdM6LzHPZ8lNMNF223o6-3">
          <mxGeometry width="50" height="50" relative="1" as="geometry">
            <mxPoint x="600" y="1040" as="sourcePoint" />
            <mxPoint x="595" y="120" as="targetPoint" />
          </mxGeometry>
        </mxCell>
        <mxCell id="FdM6LzHPZ8lNMNF223o6-6" value="" style="endArrow=none;html=1;rounded=0;entryX=0.5;entryY=1;entryDx=0;entryDy=0;dashed=1;strokeWidth=2;fillColor=#f5f5f5;strokeColor=#666666;" edge="1" parent="1" target="FdM6LzHPZ8lNMNF223o6-2">
          <mxGeometry width="50" height="50" relative="1" as="geometry">
            <mxPoint x="380" y="1040" as="sourcePoint" />
            <mxPoint x="590" y="350" as="targetPoint" />
          </mxGeometry>
        </mxCell>
        <mxCell id="FdM6LzHPZ8lNMNF223o6-22" value="" style="rounded=0;whiteSpace=wrap;html=1;fillColor=#f5f5f5;fontColor=#333333;strokeColor=#666666;movable=1;resizable=1;rotatable=1;deletable=1;editable=1;locked=0;connectable=1;" vertex="1" parent="1">
          <mxGeometry x="375" y="160" width="10" height="860" as="geometry" />
        </mxCell>
        <mxCell id="FdM6LzHPZ8lNMNF223o6-1" value="&lt;font style=&quot;font-size: 14px;&quot;&gt;Администратор / Сотрудник&lt;/font&gt;" style="shape=umlActor;verticalLabelPosition=bottom;verticalAlign=top;html=1;outlineConnect=0;strokeWidth=2;fillColor=#f5f5f5;fontColor=#000000;strokeColor=#666666;" vertex="1" parent="1">
          <mxGeometry x="120" y="5" width="40" height="75" as="geometry" />
        </mxCell>
        <mxCell id="FdM6LzHPZ8lNMNF223o6-2" value="Панель администратора" style="rounded=0;whiteSpace=wrap;html=1;fontSize=14;fillColor=#f5f5f5;fontColor=#000000;strokeColor=#666666;strokeWidth=2;" vertex="1" parent="1">
          <mxGeometry x="280" y="60" width="200" height="40" as="geometry" />
        </mxCell>
        <mxCell id="FdM6LzHPZ8lNMNF223o6-3" value="Форма&lt;div&gt;регистрации клиента&lt;/div&gt;" style="rounded=0;whiteSpace=wrap;html=1;fontSize=14;fillColor=#f5f5f5;fontColor=#000000;strokeColor=#666666;strokeWidth=2;" vertex="1" parent="1">
          <mxGeometry x="500" y="60" width="200" height="40" as="geometry" />
        </mxCell>
        <mxCell id="FdM6LzHPZ8lNMNF223o6-4" value="Система" style="rounded=0;whiteSpace=wrap;html=1;fontSize=14;fillColor=#f5f5f5;fontColor=#000000;strokeColor=#666666;strokeWidth=2;" vertex="1" parent="1">
          <mxGeometry x="720" y="60" width="200" height="40" as="geometry" />
        </mxCell>
        <mxCell id="FdM6LzHPZ8lNMNF223o6-11" value="" style="endArrow=none;html=1;rounded=0;dashed=1;strokeWidth=2;fillColor=#f5f5f5;strokeColor=#666666;" edge="1" parent="1">
          <mxGeometry width="50" height="50" relative="1" as="geometry">
            <mxPoint x="140" y="1040" as="sourcePoint" />
            <mxPoint x="140" y="110" as="targetPoint" />
          </mxGeometry>
        </mxCell>
        <mxCell id="FdM6LzHPZ8lNMNF223o6-13" value="" style="endArrow=classic;html=1;rounded=0;strokeWidth=2;fillColor=#f5f5f5;strokeColor=#666666;fontColor=#000000;" edge="1" parent="1">
          <mxGeometry width="50" height="50" relative="1" as="geometry">
            <mxPoint x="140" y="160" as="sourcePoint" />
            <mxPoint x="370" y="160" as="targetPoint" />
          </mxGeometry>
        </mxCell>
        <mxCell id="FdM6LzHPZ8lNMNF223o6-14" value="Войти в систему" style="text;html=1;align=left;verticalAlign=middle;whiteSpace=wrap;rounded=0;fontColor=#000000;fontSize=14;" vertex="1" parent="1">
          <mxGeometry x="150" y="130" width="130" height="30" as="geometry" />
        </mxCell>
        <mxCell id="FdM6LzHPZ8lNMNF223o6-15" value="&amp;nbsp; alt" style="shape=umlFrame;whiteSpace=wrap;html=1;pointerEvents=0;strokeWidth=3;width=40;height=20;align=left;movable=0;resizable=0;rotatable=0;deletable=0;editable=0;locked=1;connectable=0;" vertex="1" parent="1">
          <mxGeometry x="60" y="180" width="1520" height="820" as="geometry" />
        </mxCell>
        <mxCell id="FdM6LzHPZ8lNMNF223o6-17" value="[ Клиент&amp;nbsp; ещё не добавлен ]" style="text;html=1;align=left;verticalAlign=middle;whiteSpace=wrap;rounded=0;fontColor=#000000;fontSize=14;fontStyle=1" vertex="1" parent="1">
          <mxGeometry x="150" y="180" width="220" height="20" as="geometry" />
        </mxCell>
        <mxCell id="FdM6LzHPZ8lNMNF223o6-18" value="" style="endArrow=classic;html=1;rounded=0;strokeWidth=2;fillColor=#f5f5f5;strokeColor=#666666;fontColor=#000000;" edge="1" parent="1">
          <mxGeometry width="50" height="50" relative="1" as="geometry">
            <mxPoint x="140" y="240" as="sourcePoint" />
            <mxPoint x="590" y="240" as="targetPoint" />
          </mxGeometry>
        </mxCell>
        <mxCell id="FdM6LzHPZ8lNMNF223o6-19" value="&lt;span style=&quot;text-align: center;&quot;&gt;Нажать в боковом меню&amp;nbsp;&lt;/span&gt;&lt;span style=&quot;text-align: center; background-color: initial;&quot;&gt;&quot;Клиенты&quot;&amp;nbsp;– &quot;Добавление клиента&quot;&lt;/span&gt;" style="text;html=1;align=left;verticalAlign=middle;whiteSpace=wrap;rounded=0;fontColor=#000000;fontSize=14;" vertex="1" parent="1">
          <mxGeometry x="150" y="210" width="410" height="30" as="geometry" />
        </mxCell>
        <mxCell id="FdM6LzHPZ8lNMNF223o6-20" value="" style="endArrow=classic;html=1;rounded=0;strokeWidth=2;fillColor=#f5f5f5;strokeColor=#666666;fontColor=#000000;" edge="1" parent="1">
          <mxGeometry width="50" height="50" relative="1" as="geometry">
            <mxPoint x="140" y="280" as="sourcePoint" />
            <mxPoint x="590" y="280" as="targetPoint" />
          </mxGeometry>
        </mxCell>
        <mxCell id="FdM6LzHPZ8lNMNF223o6-21" value="&lt;span style=&quot;text-align: center;&quot;&gt;Ввести данные&amp;nbsp;&lt;/span&gt;&lt;span style=&quot;text-align: center; background-color: initial;&quot;&gt;клиента и&lt;/span&gt;&lt;div&gt;&lt;span style=&quot;text-align: center; background-color: initial;&quot;&gt;н&lt;/span&gt;&lt;span style=&quot;text-align: center;&quot;&gt;ажать кнопку&amp;nbsp;&lt;/span&gt;&lt;span style=&quot;text-align: center; background-color: initial;&quot;&gt;&quot;Подтвердить&amp;nbsp;&lt;/span&gt;&lt;span style=&quot;background-color: initial; text-align: center;&quot;&gt;информацию о клиенте&quot;&lt;/span&gt;&lt;/div&gt;" style="text;html=1;align=left;verticalAlign=middle;whiteSpace=wrap;rounded=0;fontColor=#000000;fontSize=14;" vertex="1" parent="1">
          <mxGeometry x="150" y="240" width="410" height="40" as="geometry" />
        </mxCell>
        <mxCell id="FdM6LzHPZ8lNMNF223o6-28" value="" style="endArrow=classic;html=1;rounded=0;strokeWidth=2;fillColor=#f5f5f5;strokeColor=#666666;fontColor=#000000;" edge="1" parent="1">
          <mxGeometry width="50" height="50" relative="1" as="geometry">
            <mxPoint x="605" y="310" as="sourcePoint" />
            <mxPoint x="810" y="310" as="targetPoint" />
          </mxGeometry>
        </mxCell>
        <mxCell id="FdM6LzHPZ8lNMNF223o6-30" value="Зарегистрировать клиента" style="text;html=1;align=left;verticalAlign=middle;whiteSpace=wrap;rounded=0;fontColor=#000000;fontSize=14;" vertex="1" parent="1">
          <mxGeometry x="610" y="280" width="200" height="30" as="geometry" />
        </mxCell>
        <mxCell id="FdM6LzHPZ8lNMNF223o6-32" value="" style="endArrow=classic;html=1;rounded=0;strokeWidth=2;fillColor=#f5f5f5;strokeColor=#666666;fontColor=#000000;dashed=1;dashPattern=1 1;" edge="1" parent="1">
          <mxGeometry width="50" height="50" relative="1" as="geometry">
            <mxPoint x="810" y="350" as="sourcePoint" />
            <mxPoint x="140" y="350" as="targetPoint" />
          </mxGeometry>
        </mxCell>
        <mxCell id="FdM6LzHPZ8lNMNF223o6-33" value="Сообщить об успехе/неудаче" style="text;html=1;align=right;verticalAlign=middle;whiteSpace=wrap;rounded=0;fontColor=#000000;fontSize=14;" vertex="1" parent="1">
          <mxGeometry x="610" y="320" width="200" height="30" as="geometry" />
        </mxCell>
        <mxCell id="FdM6LzHPZ8lNMNF223o6-23" value="" style="rounded=0;whiteSpace=wrap;html=1;fillColor=#f5f5f5;fontColor=#333333;strokeColor=#666666;movable=1;resizable=1;rotatable=1;deletable=1;editable=1;locked=0;connectable=1;" vertex="1" parent="1">
          <mxGeometry x="595" y="240" width="10" height="110" as="geometry" />
        </mxCell>
        <mxCell id="FdM6LzHPZ8lNMNF223o6-27" value="" style="rounded=0;whiteSpace=wrap;html=1;fillColor=#f5f5f5;fontColor=#333333;strokeColor=#666666;movable=1;resizable=1;rotatable=1;deletable=1;editable=1;locked=0;connectable=1;" vertex="1" parent="1">
          <mxGeometry x="815" y="310" width="10" height="40" as="geometry" />
        </mxCell>
        <mxCell id="FdM6LzHPZ8lNMNF223o6-34" value="" style="endArrow=none;dashed=1;html=1;rounded=0;strokeWidth=3;movable=0;resizable=0;rotatable=0;deletable=0;editable=0;locked=1;connectable=0;startArrow=none;startFill=0;" edge="1" parent="1">
          <mxGeometry width="50" height="50" relative="1" as="geometry">
            <mxPoint x="60" y="370" as="sourcePoint" />
            <mxPoint x="1580" y="370" as="targetPoint" />
          </mxGeometry>
        </mxCell>
        <mxCell id="FdM6LzHPZ8lNMNF223o6-35" value="[ Клиент добавлен ]" style="text;html=1;align=left;verticalAlign=middle;whiteSpace=wrap;rounded=0;fontColor=#000000;fontSize=14;fontStyle=1" vertex="1" parent="1">
          <mxGeometry x="150" y="370" width="220" height="20" as="geometry" />
        </mxCell>
        <mxCell id="FdM6LzHPZ8lNMNF223o6-36" value="" style="endArrow=classic;html=1;rounded=0;strokeWidth=2;fillColor=#f5f5f5;strokeColor=#666666;fontColor=#000000;" edge="1" parent="1">
          <mxGeometry width="50" height="50" relative="1" as="geometry">
            <mxPoint x="140" y="430" as="sourcePoint" />
            <mxPoint x="1030" y="430" as="targetPoint" />
          </mxGeometry>
        </mxCell>
        <mxCell id="FdM6LzHPZ8lNMNF223o6-37" value="" style="endArrow=none;html=1;rounded=0;entryX=0.5;entryY=1;entryDx=0;entryDy=0;dashed=1;strokeWidth=2;fillColor=#f5f5f5;strokeColor=#666666;movable=1;resizable=1;rotatable=1;deletable=1;editable=1;locked=0;connectable=1;" edge="1" parent="1" target="FdM6LzHPZ8lNMNF223o6-38">
          <mxGeometry width="50" height="50" relative="1" as="geometry">
            <mxPoint x="1040" y="1040" as="sourcePoint" />
            <mxPoint x="940" y="150" as="targetPoint" />
          </mxGeometry>
        </mxCell>
        <mxCell id="FdM6LzHPZ8lNMNF223o6-38" value="Таблица&lt;div&gt;платежей клиентов&lt;/div&gt;" style="rounded=0;whiteSpace=wrap;html=1;fontSize=14;fillColor=#f5f5f5;fontColor=#000000;strokeColor=#666666;strokeWidth=2;" vertex="1" parent="1">
          <mxGeometry x="940" y="60" width="200" height="40" as="geometry" />
        </mxCell>
        <mxCell id="FdM6LzHPZ8lNMNF223o6-43" value="&lt;span style=&quot;text-align: center;&quot;&gt;Нажать в боковом меню&amp;nbsp;&lt;/span&gt;&lt;span style=&quot;text-align: center; background-color: initial;&quot;&gt;&quot;Платежи от клиентов&quot;&lt;/span&gt;" style="text;html=1;align=left;verticalAlign=middle;whiteSpace=wrap;rounded=0;fontColor=#000000;fontSize=14;" vertex="1" parent="1">
          <mxGeometry x="150" y="399" width="330" height="30" as="geometry" />
        </mxCell>
        <mxCell id="FdM6LzHPZ8lNMNF223o6-44" value="" style="endArrow=classic;html=1;rounded=0;strokeWidth=2;fillColor=#f5f5f5;strokeColor=#666666;fontColor=#000000;" edge="1" parent="1">
          <mxGeometry width="50" height="50" relative="1" as="geometry">
            <mxPoint x="140" y="470" as="sourcePoint" />
            <mxPoint x="1030" y="470" as="targetPoint" />
          </mxGeometry>
        </mxCell>
        <mxCell id="FdM6LzHPZ8lNMNF223o6-45" value="&lt;span style=&quot;text-align: center;&quot;&gt;Поиск клиента&lt;/span&gt;" style="text;html=1;align=left;verticalAlign=middle;whiteSpace=wrap;rounded=0;fontColor=#000000;fontSize=14;" vertex="1" parent="1">
          <mxGeometry x="150" y="440" width="140" height="30" as="geometry" />
        </mxCell>
        <mxCell id="FdM6LzHPZ8lNMNF223o6-46" value="" style="endArrow=classic;html=1;rounded=0;strokeWidth=2;fillColor=#f5f5f5;strokeColor=#666666;fontColor=#000000;dashed=1;dashPattern=1 1;" edge="1" parent="1">
          <mxGeometry width="50" height="50" relative="1" as="geometry">
            <mxPoint x="1030" y="510" as="sourcePoint" />
            <mxPoint x="140" y="510" as="targetPoint" />
          </mxGeometry>
        </mxCell>
        <mxCell id="FdM6LzHPZ8lNMNF223o6-47" value="&lt;span style=&quot;&quot;&gt;Результаты поиска клиента&lt;/span&gt;" style="text;html=1;align=right;verticalAlign=middle;whiteSpace=wrap;rounded=0;fontColor=#000000;fontSize=14;" vertex="1" parent="1">
          <mxGeometry x="840" y="480" width="190" height="30" as="geometry" />
        </mxCell>
        <mxCell id="FdM6LzHPZ8lNMNF223o6-48" value="&amp;nbsp; alt" style="shape=umlFrame;whiteSpace=wrap;html=1;pointerEvents=0;strokeWidth=3;width=40;height=20;align=left;movable=0;resizable=0;rotatable=0;deletable=0;editable=0;locked=1;connectable=0;" vertex="1" parent="1">
          <mxGeometry x="80" y="540" width="1480" height="440" as="geometry" />
        </mxCell>
        <mxCell id="FdM6LzHPZ8lNMNF223o6-49" value="[ Новый платёж ]" style="text;html=1;align=left;verticalAlign=middle;whiteSpace=wrap;rounded=0;fontColor=#000000;fontSize=14;fontStyle=1" vertex="1" parent="1">
          <mxGeometry x="150" y="540" width="220" height="20" as="geometry" />
        </mxCell>
        <mxCell id="FdM6LzHPZ8lNMNF223o6-50" value="" style="endArrow=none;html=1;rounded=0;entryX=0.5;entryY=1;entryDx=0;entryDy=0;dashed=1;strokeWidth=2;fillColor=#f5f5f5;strokeColor=#666666;movable=1;resizable=1;rotatable=1;deletable=1;editable=1;locked=0;connectable=1;" edge="1" parent="1" target="FdM6LzHPZ8lNMNF223o6-51">
          <mxGeometry width="50" height="50" relative="1" as="geometry">
            <mxPoint x="1260" y="1040" as="sourcePoint" />
            <mxPoint x="1160" y="150" as="targetPoint" />
          </mxGeometry>
        </mxCell>
        <mxCell id="FdM6LzHPZ8lNMNF223o6-51" value="Форма оплаты" style="rounded=0;whiteSpace=wrap;html=1;fontSize=14;fillColor=#f5f5f5;fontColor=#000000;strokeColor=#666666;strokeWidth=2;movable=1;resizable=1;rotatable=1;deletable=1;editable=1;locked=0;connectable=1;" vertex="1" parent="1">
          <mxGeometry x="1160" y="60" width="200" height="40" as="geometry" />
        </mxCell>
        <mxCell id="FdM6LzHPZ8lNMNF223o6-52" value="" style="rounded=0;whiteSpace=wrap;html=1;fillColor=#f5f5f5;fontColor=#333333;strokeColor=#666666;movable=1;resizable=1;rotatable=1;deletable=1;editable=1;locked=0;connectable=1;" vertex="1" parent="1">
          <mxGeometry x="1255" y="600" width="10" height="210" as="geometry" />
        </mxCell>
        <mxCell id="FdM6LzHPZ8lNMNF223o6-54" value="" style="endArrow=classic;html=1;rounded=0;strokeWidth=2;fillColor=#f5f5f5;strokeColor=#666666;fontColor=#000000;" edge="1" parent="1">
          <mxGeometry width="50" height="50" relative="1" as="geometry">
            <mxPoint x="140" y="600" as="sourcePoint" />
            <mxPoint x="1250" y="600" as="targetPoint" />
          </mxGeometry>
        </mxCell>
        <mxCell id="FdM6LzHPZ8lNMNF223o6-58" value="&lt;span style=&quot;text-align: center;&quot;&gt;В столбце &quot;Действие&quot;&amp;nbsp;&lt;/span&gt;&lt;span style=&quot;text-align: center; background-color: initial;&quot;&gt;нажать &quot;Произвести оплату&quot;&lt;/span&gt;" style="text;html=1;align=left;verticalAlign=middle;whiteSpace=wrap;rounded=0;fontColor=#000000;fontSize=14;" vertex="1" parent="1">
          <mxGeometry x="150" y="570" width="350" height="30" as="geometry" />
        </mxCell>
        <mxCell id="FdM6LzHPZ8lNMNF223o6-59" value="" style="endArrow=classic;html=1;rounded=0;strokeWidth=2;fillColor=#f5f5f5;strokeColor=#666666;fontColor=#000000;" edge="1" parent="1">
          <mxGeometry width="50" height="50" relative="1" as="geometry">
            <mxPoint x="140" y="640" as="sourcePoint" />
            <mxPoint x="1250" y="640" as="targetPoint" />
          </mxGeometry>
        </mxCell>
        <mxCell id="FdM6LzHPZ8lNMNF223o6-60" value="&lt;span style=&quot;text-align: center;&quot;&gt;Ввести данные в Форму оплаты &lt;b&gt;и н&lt;/b&gt;&lt;/span&gt;&lt;span style=&quot;text-align: center;&quot;&gt;ажать кнопку &quot;Произвести платёж&quot;&lt;/span&gt;" style="text;html=1;align=left;verticalAlign=middle;whiteSpace=wrap;rounded=0;fontColor=#000000;fontSize=14;" vertex="1" parent="1">
          <mxGeometry x="150" y="610" width="1060" height="30" as="geometry" />
        </mxCell>
        <mxCell id="FdM6LzHPZ8lNMNF223o6-61" value="" style="endArrow=classic;html=1;rounded=0;strokeWidth=2;fillColor=#f5f5f5;strokeColor=#666666;fontColor=#000000;" edge="1" parent="1">
          <mxGeometry width="50" height="50" relative="1" as="geometry">
            <mxPoint x="1255" y="680" as="sourcePoint" />
            <mxPoint x="830" y="680" as="targetPoint" />
          </mxGeometry>
        </mxCell>
        <mxCell id="FdM6LzHPZ8lNMNF223o6-62" value="&lt;span style=&quot;&quot;&gt;Смена статуса клиента&lt;/span&gt;" style="text;html=1;align=right;verticalAlign=middle;whiteSpace=wrap;rounded=0;fontColor=#000000;fontSize=14;" vertex="1" parent="1">
          <mxGeometry x="1050" y="650" width="190" height="30" as="geometry" />
        </mxCell>
        <mxCell id="FdM6LzHPZ8lNMNF223o6-63" value="" style="endArrow=none;html=1;rounded=0;entryX=0.5;entryY=1;entryDx=0;entryDy=0;dashed=1;strokeWidth=2;fillColor=#f5f5f5;strokeColor=#666666;movable=1;resizable=1;rotatable=1;deletable=1;editable=1;locked=0;connectable=1;" edge="1" parent="1" target="FdM6LzHPZ8lNMNF223o6-64">
          <mxGeometry width="50" height="50" relative="1" as="geometry">
            <mxPoint x="1480" y="1040" as="sourcePoint" />
            <mxPoint x="1380" y="150" as="targetPoint" />
          </mxGeometry>
        </mxCell>
        <mxCell id="FdM6LzHPZ8lNMNF223o6-64" value="Квитанция" style="rounded=0;whiteSpace=wrap;html=1;fontSize=14;fillColor=#f5f5f5;fontColor=#000000;strokeColor=#666666;strokeWidth=2;movable=1;resizable=1;rotatable=1;deletable=1;editable=1;locked=0;connectable=1;" vertex="1" parent="1">
          <mxGeometry x="1380" y="60" width="200" height="40" as="geometry" />
        </mxCell>
        <mxCell id="FdM6LzHPZ8lNMNF223o6-66" value="" style="endArrow=classic;html=1;rounded=0;strokeWidth=2;fillColor=#f5f5f5;strokeColor=#666666;fontColor=#000000;" edge="1" parent="1">
          <mxGeometry width="50" height="50" relative="1" as="geometry">
            <mxPoint x="820" y="720" as="sourcePoint" />
            <mxPoint x="1470" y="720" as="targetPoint" />
          </mxGeometry>
        </mxCell>
        <mxCell id="FdM6LzHPZ8lNMNF223o6-67" value="&lt;span style=&quot;&quot;&gt;Создать квитанцию&lt;/span&gt;" style="text;html=1;align=left;verticalAlign=middle;whiteSpace=wrap;rounded=0;fontColor=#000000;fontSize=14;" vertex="1" parent="1">
          <mxGeometry x="840" y="690" width="190" height="30" as="geometry" />
        </mxCell>
        <mxCell id="FdM6LzHPZ8lNMNF223o6-69" value="" style="endArrow=classic;html=1;rounded=0;strokeWidth=2;fillColor=#f5f5f5;strokeColor=#666666;fontColor=#000000;dashed=1;dashPattern=1 1;" edge="1" parent="1">
          <mxGeometry width="50" height="50" relative="1" as="geometry">
            <mxPoint x="1475" y="760" as="sourcePoint" />
            <mxPoint x="140" y="760" as="targetPoint" />
          </mxGeometry>
        </mxCell>
        <mxCell id="FdM6LzHPZ8lNMNF223o6-70" value="&lt;span style=&quot;&quot;&gt;Отображение квитанции&lt;/span&gt;" style="text;html=1;align=right;verticalAlign=middle;whiteSpace=wrap;rounded=0;fontColor=#000000;fontSize=14;" vertex="1" parent="1">
          <mxGeometry x="1280" y="730" width="190" height="30" as="geometry" />
        </mxCell>
        <mxCell id="FdM6LzHPZ8lNMNF223o6-71" value="" style="endArrow=classic;html=1;rounded=0;strokeWidth=2;fillColor=#f5f5f5;strokeColor=#666666;fontColor=#000000;" edge="1" parent="1">
          <mxGeometry width="50" height="50" relative="1" as="geometry">
            <mxPoint x="140" y="800" as="sourcePoint" />
            <mxPoint x="1470" y="800" as="targetPoint" />
          </mxGeometry>
        </mxCell>
        <mxCell id="FdM6LzHPZ8lNMNF223o6-72" value="&lt;span style=&quot;text-align: center;&quot;&gt;Нажать кнопку &quot;Напечатать&quot;&lt;/span&gt;" style="text;html=1;align=left;verticalAlign=middle;whiteSpace=wrap;rounded=0;fontColor=#000000;fontSize=14;" vertex="1" parent="1">
          <mxGeometry x="150" y="770" width="210" height="30" as="geometry" />
        </mxCell>
        <mxCell id="FdM6LzHPZ8lNMNF223o6-73" value="" style="endArrow=classic;html=1;rounded=0;strokeWidth=2;fillColor=#f5f5f5;strokeColor=#666666;fontColor=#000000;dashed=1;dashPattern=1 1;" edge="1" parent="1">
          <mxGeometry width="50" height="50" relative="1" as="geometry">
            <mxPoint x="1480" y="839" as="sourcePoint" />
            <mxPoint x="140" y="840" as="targetPoint" />
          </mxGeometry>
        </mxCell>
        <mxCell id="FdM6LzHPZ8lNMNF223o6-74" value="&lt;span style=&quot;&quot;&gt;Печать квитанции&lt;/span&gt;" style="text;html=1;align=right;verticalAlign=middle;whiteSpace=wrap;rounded=0;fontColor=#000000;fontSize=14;" vertex="1" parent="1">
          <mxGeometry x="1280" y="810" width="190" height="30" as="geometry" />
        </mxCell>
        <mxCell id="FdM6LzHPZ8lNMNF223o6-65" value="" style="rounded=0;whiteSpace=wrap;html=1;fillColor=#f5f5f5;fontColor=#333333;strokeColor=#666666;movable=1;resizable=1;rotatable=1;deletable=1;editable=1;locked=0;connectable=1;" vertex="1" parent="1">
          <mxGeometry x="1475" y="720" width="10" height="120" as="geometry" />
        </mxCell>
        <mxCell id="FdM6LzHPZ8lNMNF223o6-75" value="" style="rounded=0;whiteSpace=wrap;html=1;fillColor=#f5f5f5;fontColor=#333333;strokeColor=#666666;movable=1;resizable=1;rotatable=1;deletable=1;editable=1;locked=0;connectable=1;" vertex="1" parent="1">
          <mxGeometry x="815" y="680" width="10" height="40" as="geometry" />
        </mxCell>
        <mxCell id="FdM6LzHPZ8lNMNF223o6-39" value="" style="rounded=0;whiteSpace=wrap;html=1;fillColor=#f5f5f5;fontColor=#333333;strokeColor=#666666;movable=1;resizable=1;rotatable=1;deletable=1;editable=1;locked=0;connectable=1;" vertex="1" parent="1">
          <mxGeometry x="1035" y="430" width="10" height="80" as="geometry" />
        </mxCell>
        <mxCell id="FdM6LzHPZ8lNMNF223o6-77" value="" style="endArrow=none;dashed=1;html=1;rounded=0;strokeWidth=3;movable=0;resizable=0;rotatable=0;deletable=0;editable=0;locked=1;connectable=0;startArrow=none;startFill=0;" edge="1" parent="1">
          <mxGeometry width="50" height="50" relative="1" as="geometry">
            <mxPoint x="80" y="860" as="sourcePoint" />
            <mxPoint x="1560" y="860" as="targetPoint" />
          </mxGeometry>
        </mxCell>
        <mxCell id="FdM6LzHPZ8lNMNF223o6-78" value="[ Напоминание о платеже ]" style="text;html=1;align=left;verticalAlign=middle;whiteSpace=wrap;rounded=0;fontColor=#000000;fontSize=14;fontStyle=1" vertex="1" parent="1">
          <mxGeometry x="150" y="860" width="220" height="20" as="geometry" />
        </mxCell>
        <mxCell id="FdM6LzHPZ8lNMNF223o6-79" value="" style="shape=mxgraph.mockup.markup.redX;fillColor=#666666;html=1;shadow=0;whiteSpace=wrap;strokeColor=none;fontColor=#333333;" vertex="1" parent="1">
          <mxGeometry x="1470" y="827" width="20" height="20" as="geometry" />
        </mxCell>
        <mxCell id="FdM6LzHPZ8lNMNF223o6-80" value="" style="endArrow=classic;html=1;rounded=0;strokeWidth=2;fillColor=#f5f5f5;strokeColor=#666666;fontColor=#000000;" edge="1" parent="1">
          <mxGeometry width="50" height="50" relative="1" as="geometry">
            <mxPoint x="140" y="920" as="sourcePoint" />
            <mxPoint x="810" y="920" as="targetPoint" />
          </mxGeometry>
        </mxCell>
        <mxCell id="FdM6LzHPZ8lNMNF223o6-81" value="&lt;span style=&quot;text-align: center;&quot;&gt;В столбце &quot;Напомнить&quot;&amp;nbsp;&lt;/span&gt;&lt;span style=&quot;text-align: center; background-color: initial;&quot;&gt;нажать &quot;Напомнить&quot;&lt;/span&gt;" style="text;html=1;align=left;verticalAlign=middle;whiteSpace=wrap;rounded=0;fontColor=#000000;fontSize=14;" vertex="1" parent="1">
          <mxGeometry x="150" y="890" width="330" height="30" as="geometry" />
        </mxCell>
        <mxCell id="FdM6LzHPZ8lNMNF223o6-82" value="" style="rounded=0;whiteSpace=wrap;html=1;fillColor=#f5f5f5;fontColor=#333333;strokeColor=#666666;movable=1;resizable=1;rotatable=1;deletable=1;editable=1;locked=0;connectable=1;" vertex="1" parent="1">
          <mxGeometry x="815" y="920" width="10" height="40" as="geometry" />
        </mxCell>
        <mxCell id="FdM6LzHPZ8lNMNF223o6-83" value="" style="endArrow=classic;html=1;rounded=0;strokeWidth=2;fillColor=#f5f5f5;strokeColor=#666666;fontColor=#000000;dashed=1;dashPattern=1 1;exitX=0;exitY=1;exitDx=0;exitDy=0;" edge="1" parent="1" source="FdM6LzHPZ8lNMNF223o6-82">
          <mxGeometry width="50" height="50" relative="1" as="geometry">
            <mxPoint x="1485" y="770" as="sourcePoint" />
            <mxPoint x="140" y="960" as="targetPoint" />
          </mxGeometry>
        </mxCell>
        <mxCell id="FdM6LzHPZ8lNMNF223o6-84" value="Напоминание отправлено" style="text;html=1;align=right;verticalAlign=middle;whiteSpace=wrap;rounded=0;fontColor=#000000;fontSize=14;" vertex="1" parent="1">
          <mxGeometry x="470" y="930" width="330" height="30" as="geometry" />
        </mxCell>
      </root>
    </mxGraphModel>
  </diagram>
</mxfile>
